<svg width="14" height="14" viewBox="0 0 14 14" fill="none" xmlns="http://www.w3.org/2000/svg">
<g clip-path="url(#clip0_309_10)">
<mask id="mask0_309_10" style="mask-type:luminance" maskUnits="userSpaceOnUse" x="0" y="0" width="14" height="14">
<path d="M13.426 0H0V13.423H13.426V0Z" fill="white"/>
</mask>
<g mask="url(#mask0_309_10)">
<path d="M8.30389 6.71098L13.1039 1.91098C13.2928 1.69626 13.3928 1.4176 13.3835 1.13174C13.3741 0.845885 13.2562 0.574343 13.0536 0.372423C12.8511 0.170504 12.5791 0.0533957 12.2933 0.0449525C12.0074 0.0365093 11.729 0.137366 11.5149 0.32698L6.71489 5.12698L1.91489 0.32698C1.8145 0.208183 1.69055 0.111514 1.55087 0.0430871C1.4112 -0.0253393 1.25885 -0.0640332 1.10345 -0.070547C0.948049 -0.0770608 0.792991 -0.0512532 0.648081 0.0052444C0.503171 0.0617419 0.371564 0.147699 0.261584 0.257678C0.151605 0.367657 0.0656483 0.499265 0.00915065 0.644175C-0.0473469 0.789084 -0.0731544 0.944142 -0.0666407 1.09954C-0.0601269 1.25494 -0.0214329 1.40729 0.0469935 1.54696C0.11542 1.68664 0.212089 1.81059 0.330886 1.91098L5.13089 6.71098L0.330886 11.511C0.148985 11.7262 0.0545828 12.002 0.0663855 12.2835C0.0781881 12.5651 0.195334 12.832 0.394611 13.0313C0.593887 13.2305 0.860753 13.3477 1.14233 13.3595C1.4239 13.3713 1.69963 13.2769 1.91489 13.095L6.71489 8.29498L11.5149 13.095C11.6153 13.2138 11.7392 13.3104 11.8789 13.3789C12.0186 13.4473 12.171 13.486 12.3263 13.4925C12.4817 13.499 12.6368 13.4732 12.7817 13.4167C12.9266 13.3602 13.0582 13.2743 13.1682 13.1643C13.2782 13.0543 13.3641 12.9227 13.4206 12.7778C13.4771 12.6329 13.5029 12.4778 13.4964 12.3224C13.4899 12.167 13.4512 12.0147 13.3828 11.875C13.3144 11.7353 13.2177 11.6114 13.0989 11.511L8.30389 6.71098Z" fill="white"/>
</g>
</g>
<defs>
<clipPath id="clip0_309_10">
<rect width="14" height="14" fill="white"/>
</clipPath>
</defs>
</svg>
