<svg width="14" height="14" viewBox="0 0 14 14" fill="none" xmlns="http://www.w3.org/2000/svg">
<g clip-path="url(#clip0_309_2)">
<mask id="mask0_309_2" style="mask-type:luminance" maskUnits="userSpaceOnUse" x="0" y="0" width="14" height="14">
<path d="M13.426 0H0V13.423H13.426V0Z" fill="white"/>
</mask>
<g mask="url(#mask0_309_2)">
<path d="M13.4261 0.946C13.4387 0.709678 13.3577 0.477896 13.2007 0.30084C13.0436 0.123784 12.8232 0.0157036 12.5871 0H0.839061C0.602924 0.0157036 0.382474 0.123784 0.225445 0.30084C0.0684151 0.477896 -0.012557 0.709678 6.05123e-05 0.946C-0.012557 1.18232 0.0684151 1.4141 0.225445 1.59116C0.382474 1.76822 0.602924 1.8763 0.839061 1.892H12.5871C12.8232 1.8763 13.0436 1.76822 13.2007 1.59116C13.3577 1.4141 13.4387 1.18232 13.4261 0.946Z" fill="white"/>
<path d="M13.426 12.478C13.4386 12.2417 13.3576 12.0099 13.2006 11.8328C13.0436 11.6558 12.8231 11.5477 12.587 11.532H0.83899C0.607328 11.5592 0.393717 11.6705 0.238699 11.8448C0.0836821 12.0191 -0.00195312 12.2442 -0.00195312 12.4775C-0.00195312 12.7107 0.0836821 12.9359 0.238699 13.1102C0.393717 13.2845 0.607328 13.3958 0.83899 13.423H12.587C12.8229 13.4073 13.0432 13.2993 13.2002 13.1225C13.3572 12.9457 13.4383 12.7141 13.426 12.478Z" fill="white"/>
<path d="M12.4812 5.76588C12.7266 5.77386 12.9593 5.87698 13.1301 6.05342C13.3009 6.22987 13.3964 6.46581 13.3964 6.71138C13.3964 6.95695 13.3009 7.1929 13.1301 7.36934C12.9593 7.54579 12.7266 7.6489 12.4812 7.65688H4.91718C4.79043 7.661 4.66414 7.6396 4.54583 7.59394C4.42751 7.54828 4.31959 7.4793 4.22847 7.39109C4.13735 7.30289 4.06489 7.19726 4.01541 7.08049C3.96593 6.96373 3.94043 6.8382 3.94043 6.71138C3.94043 6.58456 3.96593 6.45904 4.01541 6.34227C4.06489 6.2255 4.13735 6.11988 4.22847 6.03167C4.31959 5.94347 4.42751 5.87448 4.54583 5.82882C4.66414 5.78316 4.79043 5.76176 4.91718 5.76588H12.4812Z" fill="white"/>
</g>
</g>
<defs>
<clipPath id="clip0_309_2">
<rect width="14" height="14" fill="white"/>
</clipPath>
</defs>
</svg>
